<svg xmlns="http://www.w3.org/2000/svg" enable-background="new 0 0 64 64" viewBox="0 0 64 64" id="lady-servant"><path fill="#2395c4" d="M64,32c0,9-3.7,17.2-9.7,23c-5.8,5.6-13.6,9-22.3,9c-9.4,0-17.8-4-23.7-10.5C3.2,47.8,0,40.3,0,32
		C0,14.3,14.3,0,32,0S64,14.3,64,32z"></path><path fill="#47677c" d="M43.6,21.5v8.9c0,6.8-5.5,12.2-12.2,12.2c-6.8,0-12.2-5.5-12.2-12.2v-8.9c0-6.8,5.5-12.2,12.2-12.2
			c3.4,0,6.4,1.4,8.7,3.6C42.2,15.1,43.6,18.2,43.6,21.5z"></path><path fill="#76baa7" d="M54.3,52.5V55c-5.8,5.6-13.6,9-22.3,9c-9.4,0-17.8-4-23.7-10.5v-1c0-4.2,3.4-7.7,7.7-7.7h30.6
			C50.8,44.9,54.3,48.3,54.3,52.5z"></path><path fill="#edc3a6" d="M25,34v4.8c0,3.4-2.8,6.1-6.1,6.1l0,0l2.7,8.6c0,0,5.9-1.4,9.8,4.1c3.9-5.5,9.8-4.1,9.8-4.1l2.7-8.6l0,0
			c-3.4,0-6.1-2.8-6.1-6.1V34H25z"></path><path fill="#fcd5bb" d="M39.4,22.5v7.9c0,4.6-3.6,8.3-8.1,8.3c-4.5,0-8.1-3.7-8.1-8.3v-7.9C28.7,20.4,34.1,20.5,39.4,22.5z"></path></svg>