<svg xmlns="http://www.w3.org/2000/svg" version="1.1" xmlns:xlink="http://www.w3.org/1999/xlink" xmlns:svgjs="http://svgjs.dev/svgjs" width="1500" height="1900" viewBox="0 0 1500 1900"><g transform="matrix(1,0,0,1,-1.3724276339954713,0.7692307692307168)"><svg viewBox="0 0 195 247" data-background-color="#ffffff" preserveAspectRatio="xMidYMid meet" height="1900" width="1500" xmlns="http://www.w3.org/2000/svg" xmlns:xlink="http://www.w3.org/1999/xlink"><g id="tight-bounds" transform="matrix(1,0,0,1,0.1784155924194124,-0.09999999999999432)"><svg viewBox="0 0 194.64316881516115 247.2" height="247.2" width="194.64316881516115"><g><svg viewBox="0 0 395.5199999999999 502.3168529117384" height="247.2" width="194.64316881516115"><g transform="matrix(1,0,0,1,0,293.68446063833574)"><svg viewBox="0 0 395.5199999999999 208.63239227340267" height="208.63239227340267" width="395.5199999999999"><g id="textblocktransform"><svg viewBox="0 0 395.5199999999999 208.63239227340267" height="208.63239227340267" width="395.5199999999999" id="textblock"><g><svg viewBox="0 0 395.5199999999999 208.63239227340267" height="208.63239227340267" width="395.5199999999999"><g transform="matrix(1,0,0,1,0,0)"><svg width="395.5199999999999" viewBox="2.75 -25.8 67.3 35.5" height="208.63239227340267" data-palette-color="#7a26c1"><path d="M17.9-24.5L17.9-24.5 17.9-20.05Q15.45-21.5 11.6-21.5L11.6-21.5Q9.85-21.5 8.83-20.7 7.8-19.9 7.8-18.6L7.8-18.6Q7.8-18.25 7.88-17.93 7.95-17.6 8.15-17.28 8.35-16.95 8.53-16.73 8.7-16.5 9.1-16.25 9.5-16 9.73-15.83 9.95-15.65 10.48-15.4 11-15.15 11.25-15.03 11.5-14.9 12.13-14.63 12.75-14.35 13-14.25L13-14.25Q15.95-12.95 17.63-11.33 19.3-9.7 19.3-7L19.3-7Q19.3-3.6 16.9-1.68 14.5 0.25 10.4 0.25L10.4 0.25Q5.9 0.25 2.9-1.25L2.9-1.25 2.9-5.9Q6.4-3.75 10.15-3.75L10.15-3.75Q12.1-3.75 13.18-4.55 14.25-5.35 14.25-6.65L14.25-6.65Q14.25-7.75 13.4-8.63 12.55-9.5 11.68-9.93 10.8-10.35 8.7-11.25L8.7-11.25Q2.75-13.7 2.75-18.45L2.75-18.45Q2.75-21.8 5.25-23.7 7.75-25.6 11.5-25.6L11.5-25.6Q15.6-25.6 17.9-24.5ZM28.05-12.55L28.05-12.55Q28.15-8.7 30.4-6.23 32.65-3.75 36.7-3.75L36.7-3.75Q39.7-3.75 42.3-5.4L42.3-5.4 42.3-1Q39.85 0.5 36.05 0.5L36.05 0.5Q30.1 0.5 26.55-3.25 23-7 23-12.6L23-12.6Q23-18.05 26.57-21.93 30.15-25.8 36.25-25.8L36.25-25.8Q39.55-25.8 42.3-24.4L42.3-24.4 42.3-19.9Q39.85-21.45 36.75-21.45L36.75-21.45Q32.8-21.45 30.42-18.95 28.05-16.45 28.05-12.55ZM58.35-3.95L58.35-3.95Q61.05-3.95 63.07-6.15 65.09-8.35 65.09-12.75L65.09-12.75Q65.09-17.25 63.05-19.33 61-21.4 58.2-21.4L58.2-21.4Q55.35-21.4 53.47-19.05 51.6-16.7 51.6-12.8L51.6-12.8Q51.6-8.65 53.52-6.3 55.45-3.95 58.35-3.95ZM65.09-21.55L65.09-25.35 70.05-25.35 70.05 9.7 65.09 9.7 65.09-3.9Q62.4 0.35 57.45 0.35 52.5 0.35 49.52-3.38 46.55-7.1 46.55-12.85L46.55-12.85Q46.55-18.45 49.47-22.08 52.4-25.7 57.4-25.7 62.4-25.7 65.09-21.55L65.09-21.55Z" opacity="1" transform="matrix(1,0,0,1,0,0)" fill="#7a26c1" class="wordmark-text-0" data-fill-palette-color="primary" id="text-0"></path></svg></g></svg></g></svg></g></svg></g><g transform="matrix(1,0,0,1,75.54431999999998,0)"><svg viewBox="0 0 244.43135999999996 244.43135999999993" height="244.43135999999993" width="244.43135999999996"><g><svg></svg></g><g id="icon-0"><svg viewBox="0 0 244.43135999999996 244.43135999999993" height="244.43135999999993" width="244.43135999999996"><g><path transform="scale(2.44431,2.44431)" d="M30 100c-16.569 0-30-13.431-30-30v-40c0-16.569 13.431-30 30-30h40c16.569 0 30 13.431 30 30v40c0 16.569-13.431 30-30 30z" fill="#7a26c1" fill-rule="nonzero" stroke="none" stroke-width="1" stroke-linecap="butt" stroke-linejoin="miter" stroke-miterlimit="10" stroke-dasharray="" stroke-dashoffset="0" font-family="none" font-weight="none" font-size="none" text-anchor="none" style="mix-blend-mode: normal" data-fill-palette-color="accent"></path></g><g transform="matrix(1,0,0,1,55.53443434022874,48.88627199999998)"><svg viewBox="0 0 133.36249131954247 146.65881599999997" height="146.65881599999997" width="133.36249131954247"><g><svg xmlns="http://www.w3.org/2000/svg" xmlns:xlink="http://www.w3.org/1999/xlink" version="1.1" x="0" y="0" viewBox="6.1 1.7781272832474189 87.7 96.44374543350517" enable-background="new 0 0 100 100" xml:space="preserve" height="146.65881599999997" width="133.36249131954247" class="icon-cg-0" data-fill-palette-color="quaternary" id="cg-0"><path d="M25 50c0 13.8 11.2 25 25 25 13.8 0 25-11.2 25-25 0-13.8-11.2-25-25-25C36.2 25 25 36.2 25 50zM63 44.4L51.6 55.7l-5 4.9-4.9-5L37 50.9l5-4.9 4.7 4.8 11.3-11.3L63 44.4zM12.7 50H6.1C6.1 25.8 25.8 6.1 50 6.1V2.3c0-0.4 0.5-0.7 0.8-0.4L61.1 9c0.3 0.2 0.3 0.6 0 0.8l-10.3 7.1c-0.3 0.2-0.8 0-0.8-0.4v-3.8C29.4 12.7 12.7 29.4 12.7 50zM50 87.3c20.6 0 37.3-16.7 37.3-37.3h6.5c0 24.2-19.7 43.9-43.9 43.9v3.8c0 0.4-0.5 0.7-0.8 0.4L38.9 91c-0.3-0.2-0.3-0.6 0-0.8l10.3-7.1c0.3-0.2 0.8 0 0.8 0.4V87.3z" fill="#ffffff" data-fill-palette-color="quaternary"></path></svg></g></svg></g></svg></g></svg></g><g></g></svg></g><defs></defs></svg><rect width="194.64316881516115" height="247.2" fill="none" stroke="none" visibility="hidden"></rect></g></svg></g></svg>