<svg id="SvgjsSvg1001" width="288" height="288" xmlns="http://www.w3.org/2000/svg" version="1.1" xmlns:xlink="http://www.w3.org/1999/xlink" xmlns:svgjs="http://svgjs.com/svgjs"><defs id="SvgjsDefs1002"></defs><g id="SvgjsG1008"><svg xmlns="http://www.w3.org/2000/svg" viewBox="0 0 32 32" width="288" height="288"><defs><filter id="a" width="1.294" height="1.756" x="-.147" y="-.378" color-interpolation-filters="sRGB"><feGaussianBlur stdDeviation=".097"></feGaussianBlur></filter><filter id="b" width="1.147" height="1.177" x="-.074" y="-.089" color-interpolation-filters="sRGB"><feGaussianBlur stdDeviation=".037"></feGaussianBlur></filter><filter id="c" width="1.147" height="1.177" x="-.074" y="-.089" color-interpolation-filters="sRGB"><feGaussianBlur stdDeviation=".037"></feGaussianBlur></filter></defs><circle cx="16" cy="16" r="14" fill="#f5587b" paint-order="fill markers stroke" class="color1a1a1a svgShape"></circle><path fill="#ff8a5c" d="M20.000004 13.000026a1.5 1.5 0 011.5 1.500019 1.5 1.5 0 01-1.5 1.499981h-.999999v-.999988h.999999zM12.000002 13.000026a1.5 1.5 0 00-1.5 1.500019 1.5 1.5 0 001.5 1.499981h1.000003v-.999988h-1.000003z" class="colord38d5f svgShape"></path><path fill="#fff591" d="m 13.000005,19.796901 c 0,0 -6.0523618,0.866117 -7.7050808,5.007837 -0.02268,0.04233 -0.0443,0.08504 -0.06444,0.126992 A 13.999999,13.999999 0 0 0 16.000017,30.000114 13.999999,13.999999 0 0 0 26.7715,24.93173 c -0.02079,-0.04271 -0.04248,-0.08466 -0.06641,-0.126992 -1.652719,-4.14172 -7.705077,-5.007837 -7.705077,-5.007837 z" class="colorf2f2f2 svgShape"></path><path fill="#ff8a5c" d="m 13.000005,18.000038 v 3.999988 c 3,3 6,0 6,0 v -3.999988" class="colord38d5f svgShape"></path><path fill="#501624" d="m -44.185415,326.95788 v -0.26458 h 0.79375 0.79375 v 0.26458 c 0,0 -0.04961,0.0496 -0.136426,0.11162 -0.08682,0.062 -0.21084,0.13643 -0.359668,0.18604 -0.148828,0.0496 -0.322461,0.0744 -0.508496,0.0372 -0.186035,-0.0372 -0.384473,-0.13642 -0.58291,-0.33486 z" filter="url(#a)" opacity=".696" transform="translate(180 -1216.746) scale(3.77953)" class="color502d16 svgShape"></path><path fill="#ffa480" d="m 20.000004,12.000038 1.5e-5,3.000152 v 0 c 0,2.761322 -1.790854,4.999861 -3.99998,4.999861 -2.20913,0 -3.999999,-2.238539 -4.000037,-4.999937 0,0 -1.73e-4,-2.000088 -1.73e-4,-3.000114 0,-0.999987 1.600036,-2.999962 4.000089,-2.999962 2.400049,0 4.000086,1.999975 4.000086,3 z" paint-order="fill markers stroke" class="colorffb380 svgShape"></path><path fill="#a02c48" d="M12.000002 13.500057a.9999999.9999999 0 00-.999998.999988.9999999.9999999 0 00.999998.999987zM20.000004 13.500057a.9999999.9999999 0 01.999998.999988.9999999.9999999 0 01-.999998.999987z" paint-order="fill markers stroke" class="colora05a2c svgShape"></path><path fill-opacity=".988" d="m 13.000005,19.796901 c 0,0 -0.389269,0.05669 -0.996095,0.207118 l 0.996095,0.996095 z" fill="#000000" class="color000 svgShape"></path><path fill="#f5587b" d="m -44.365249,327.24934 c -0.06435,0.0144 -0.142385,0.0337 -0.231511,0.0594 7.18e-4,0.003 0.0013,0.006 0.0021,0.009 0.492269,0.79017 1.130143,0.9207 1.203027,0.93328 v -0.22221 c -0.0021,-3e-4 -0.0041,-7.4e-4 -0.0062,-0.001 -0.532437,-0.0744 -0.950161,-0.75005 -0.967382,-0.77825 z" filter="url(#b)" opacity=".455" transform="translate(180 -1216.746) scale(3.77953)" class="color1a1a1a svgShape"></path><path fill="#fff591" d="m 12.320314,19.929714 c -0.243213,0.05443 -0.538145,0.12737 -0.874999,0.224504 0.0027,0.01134 0.0049,0.02268 0.0079,0.03402 1.860544,2.986469 4.271407,3.479848 4.546878,3.527357 v -0.839849 c -0.0079,-0.0011 -0.0155,-0.0028 -0.02343,-0.0038 -2.012361,-0.281197 -3.59116,-2.834835 -3.656251,-2.941418 z" class="colorf2f2f2 svgShape"></path><path fill-opacity=".988" d="m 19.000005,19.796901 c 0,0 0.389268,0.05669 0.996094,0.207118 l -0.996094,0.996095 z" fill="#000000" class="color000 svgShape"></path><path fill="#f5587b" d="m -42.418078,327.24934 c 0.06435,0.0144 0.142385,0.0337 0.23151,0.0594 -7.18e-4,0.003 -0.0013,0.006 -0.0021,0.009 -0.492269,0.79016 -1.130143,0.9207 -1.203027,0.93327 v -0.22221 c 0.0021,-3e-4 0.0041,-7.3e-4 0.0062,-10e-4 0.532437,-0.0744 0.950161,-0.75005 0.967382,-0.77825 z" filter="url(#c)" opacity=".455" transform="translate(180 -1216.746) scale(3.77953)" class="color1a1a1a svgShape"></path><path fill="#fff591" d="m 19.679704,19.929714 c 0.243212,0.05443 0.538148,0.12737 0.874998,0.224504 -0.0027,0.01134 -0.0049,0.02268 -0.0079,0.03402 -1.860544,2.986431 -4.271406,3.479811 -4.546874,3.527319 v -0.839849 c 0.0079,-0.0011 0.0155,-0.0028 0.02343,-0.0038 2.01236,-0.281197 3.591159,-2.834835 3.656246,-2.941417 z" class="colorf2f2f2 svgShape"></path><path fill="#ff4800" d="m 20.498761,12.50007 c 1.2e-5,-2.485304 -2.014711,-4.500019 -4.5,-4.500019 -2.485288,0 -4.500007,2.014715 -4.5,4.500019 z" class="colorff8700 svgShape"></path><path fill="#ff4800" d="m 15.49876,7.773241 h 1.287266 l -0.287282,3.22681 H 15.498741 L 15.23357,7.773241" class="colorffad00 svgShape"></path><path fill="#e41749" d="M16.005863 12.054728c-2.701444-.0076-4.507812.445304-4.507812.445304 0 0 3.999999 1.999975 9 0-1.640625-.328063-3.17288-.441865-4.492188-.445304zM10.900394 20.322293c-.861347.283465-1.8740288.704769-2.8242178 1.314445l.265626 6.054689a13.999999 13.999999 0 006.7832008 2.25978c-.000533-4.626671-3.399145-8.706482-4.224609-9.628914zM21.111997 20.322293c.861347.283465 1.87403.704807 2.824218 1.314482l-.265625 6.054652a13.999999 13.999999 0 01-6.783201 2.25978c.000533-4.626671 3.399144-8.706482 4.224608-9.628914z" class="colorff4f00 svgShape"></path><path fill="#ffe800" d="M9.9316452 20.679723c-.341405.140599-.692002.304252-1.042969.488278.534327 1.518916 1.7196288 5.122318 1.9277328 7.802721a13.999999 13.999999 0 001.169923.414085c.01512-1.299553-.280101-3.965594-2.0546868-8.705084zM22.053221 20.679723c.341404.140599.692001.304252 1.042968.488278-.534327 1.518916-1.719632 5.122318-1.927737 7.802759a13.999999 13.999999 0 01-1.169922.414047c-.01512-1.299553.2801-3.965594 2.054691-8.705084z" class="colorff0 svgShape"></path></svg></g></svg>